<?xml version="1.0" encoding="UTF-8" standalone="no"?>
<svg
   xmlns:dc="http://purl.org/dc/elements/1.1/"
   xmlns:cc="http://creativecommons.org/ns#"
   xmlns:rdf="http://www.w3.org/1999/02/22-rdf-syntax-ns#"
   xmlns:svg="http://www.w3.org/2000/svg"
   xmlns="http://www.w3.org/2000/svg"
   xmlns:sodipodi="http://sodipodi.sourceforge.net/DTD/sodipodi-0.dtd"
   xmlns:inkscape="http://www.inkscape.org/namespaces/inkscape"
   inkscape:version="1.0 (4035a4fb49, 2020-05-01)"
   sodipodi:docname="logo_eureha.svg"
   viewBox="0 0 111.01207 157.34689"
   height="157.34689"
   width="111.01207"
   id="svg64"
   version="1.1">
  <metadata
     id="metadata70">
    <rdf:RDF>
      <cc:Work
         rdf:about="">
        <dc:format>image/svg+xml</dc:format>
        <dc:type
           rdf:resource="http://purl.org/dc/dcmitype/StillImage" />
        <dc:title></dc:title>
      </cc:Work>
    </rdf:RDF>
  </metadata>
  <defs
     id="defs68" />
  <sodipodi:namedview
     inkscape:document-rotation="0"
     fit-margin-bottom="0"
     fit-margin-right="0"
     fit-margin-left="0"
     fit-margin-top="0"
     inkscape:current-layer="svg64"
     inkscape:window-maximized="1"
     inkscape:window-y="22"
     inkscape:window-x="0"
     inkscape:cy="105.88936"
     inkscape:cx="111.73793"
     inkscape:zoom="2.463666"
     showguides="false"
     showgrid="false"
     id="namedview66"
     inkscape:window-height="1056"
     inkscape:window-width="1918"
     inkscape:pageshadow="2"
     inkscape:pageopacity="0"
     guidetolerance="10"
     gridtolerance="10"
     objecttolerance="10"
     borderopacity="1"
     bordercolor="#666666"
     pagecolor="#ffffff" />
  <g
     transform="translate(-13.574023,-8.6296623)"
     inkscape:label="logo"
     id="layer1"
     inkscape:groupmode="layer">
    <path
       sodipodi:nodetypes="cccc"
       inkscape:connector-curvature="0"
       id="path85"
       d="m 61.421006,107.70223 c 12.57952,19.61263 8.05494,39.22525 3.44417,58.83788 15.75738,-22.12146 22.65065,-46.3918 13.20265,-74.623649 -3.8504,4.798685 -4.93221,8.842299 -16.64682,15.785769 z"
       style="fill:none;stroke:none;stroke-width:1px;stroke-linecap:butt;stroke-linejoin:miter;stroke-opacity:1" />
  </g>
  <path
     sodipodi:nodetypes="cccccc"
     inkscape:connector-curvature="0"
     id="path83"
     d="M 0.77667942,78.694573 C 10.740038,99.699268 60.558041,121.07995 72.530195,49.419139 87.645967,50.23158 101.10612,46.904982 110.12904,32.485309 60.10819,55.031667 36.481634,26.776005 55.596365,-3.678463 39.064213,13.337915 41.295276,29.093072 48.995042,40.808717 61.508614,63.009443 47.798319,102.28374 0.77667942,78.694573 Z"
     style="fill:none;stroke:none;stroke-width:1px;stroke-linecap:butt;stroke-linejoin:miter;stroke-opacity:1" />
  <g
     transform="translate(-13.574023,-8.6296623)"
     id="g4908">
    <ellipse
       id="path89"
       cx="87.931412"
       cy="9.5094976"
       rx="10.770059"
       ry="8.4343834"
       style="fill:#0962b5;fill-opacity:1;stroke:#1a5083;stroke-width:1.35630727;stroke-miterlimit:4;stroke-dasharray:none;stroke-opacity:1"
       transform="rotate(15.991112)" />
    <path
       style="fill:#0962b5;fill-opacity:1;stroke:#1a5083;stroke-width:1.5;stroke-miterlimit:4;stroke-dasharray:none;stroke-opacity:1"
       d="M 14.966774,89.327471 C 49.45608,109.23988 75.053268,79.248329 64.300159,55.515047 51.119624,26.424174 58.823128,19.332065 67.469089,9.1141192 63.340367,20.678837 60.150701,25.915611 65.554024,37.024468 73.172097,48.530738 83.963288,50.882432 97.148051,49.53153 107.48193,48.434474 115.1119,45.851391 124.01356,42.125769 114.62378,53.222546 96.870339,59.516949 85.683849,60.478914 86.372919,77.750082 71.208713,100.74756 55.90517,105.57499 35.22702,111.11568 18.172808,98.305948 14.966774,89.327471 Z"
       id="path110"
       inkscape:connector-curvature="0"
       sodipodi:nodetypes="csccccccc" />
    <g
       id="g4624"
       style="stroke:#1a5083;stroke-width:1.5;stroke-miterlimit:4;stroke-dasharray:none;stroke-opacity:1"
       transform="rotate(0.03148884,-1729.7326,1498.0329)">
      <path
         inkscape:connector-curvature="0"
         id="path112"
         d="m 65.112429,164.66327 c 4.570484,-17.09486 7.449904,-40.79743 -2.700698,-57.8137 5.895568,-3.54547 11.5121,-8.266678 15.58506,-14.435993 6.63905,38.912933 -2.64939,51.067463 -12.884362,72.249693 z"
         style="fill:#0962b5;fill-opacity:1;stroke:#1a5083;stroke-width:1.5;stroke-miterlimit:4;stroke-dasharray:none;stroke-opacity:1"
         sodipodi:nodetypes="cccc" />
    </g>
  </g>
</svg>
